<svg class="icon" style="width: 1em; height: 1em;vertical-align: middle;fill: currentColor;overflow: hidden;" viewBox="0 0 1024 1024" version="1.1" xmlns="http://www.w3.org/2000/svg" p-id="1118"><path d="M512 512m-512 0a512 512 0 1 0 1024 0 512 512 0 1 0-1024 0Z" fill="#42A5F5" p-id="1119"></path><path d="M639.255942 338.299047m8.424695 4.864l0 0q8.424695 4.864 3.560695 13.288695l-196.5056 340.357683q-4.864 8.424695-13.288695 3.560696l0 0q-8.424695-4.864-3.560695-13.288696l196.5056-340.357683q4.864-8.424695 13.288695-3.560695Z" fill="#FFFFFF" p-id="1120"></path><path d="M751.0016 576.6144s-67.584-15.6672-83.456-51.2-66.4576-35.7376-66.4576-35.7376l60.928-105.472s43.4176 22.4256 61.44 57.2416S811.8272 471.04 811.8272 471.04z" fill="#FFFFFF" p-id="1121"></path><path d="MNaN NaNmNaN NaNlNaN NaNqNaN NaN NaN NaNlNaN NaNqNaN NaN NaN NaNlNaN NaNqNaN NaN NaN NaNlNaN NaNqNaN NaN NaN NaNZ" fill="#FFFFFF" p-id="1122"></path><path d="M272.9984 576.6144s67.584-15.6672 83.456-51.2 66.4576-35.7376 66.4576-35.7376l-60.928-105.472s-43.4176 22.4256-61.44 57.2416S212.1728 471.04 212.1728 471.04z" fill="#FFFFFF" p-id="1123"></path></svg>